<mxfile host="app.diagrams.net" modified="2023-07-11T16:31:16.470Z" agent="Mozilla/5.0 (Windows NT 10.0; Win64; x64) AppleWebKit/537.36 (KHTML, like Gecko) Chrome/114.0.0.0 Safari/537.36" etag="RPl4xeSmV302NsIAhpH0" version="21.6.2" type="github">
  <diagram id="C5RBs43oDa-KdzZeNtuy" name="Page-1">
    <mxGraphModel dx="2571" dy="1067" grid="1" gridSize="10" guides="1" tooltips="1" connect="1" arrows="1" fold="1" page="1" pageScale="1" pageWidth="827" pageHeight="1169" math="0" shadow="0">
      <root>
        <mxCell id="WIyWlLk6GJQsqaUBKTNV-0" />
        <mxCell id="WIyWlLk6GJQsqaUBKTNV-1" parent="WIyWlLk6GJQsqaUBKTNV-0" />
        <mxCell id="WIyWlLk6GJQsqaUBKTNV-2" value="" style="rounded=0;html=1;jettySize=auto;orthogonalLoop=1;fontSize=11;endArrow=block;endFill=0;endSize=8;strokeWidth=1;shadow=0;labelBackgroundColor=none;edgeStyle=orthogonalEdgeStyle;" parent="WIyWlLk6GJQsqaUBKTNV-1" source="WIyWlLk6GJQsqaUBKTNV-3" target="WIyWlLk6GJQsqaUBKTNV-6" edge="1">
          <mxGeometry relative="1" as="geometry" />
        </mxCell>
        <mxCell id="WIyWlLk6GJQsqaUBKTNV-3" value="User Login" style="rounded=1;whiteSpace=wrap;html=1;fontSize=12;glass=0;strokeWidth=1;shadow=0;" parent="WIyWlLk6GJQsqaUBKTNV-1" vertex="1">
          <mxGeometry x="160" y="80" width="120" height="40" as="geometry" />
        </mxCell>
        <mxCell id="WIyWlLk6GJQsqaUBKTNV-4" value="Yes" style="rounded=0;html=1;jettySize=auto;orthogonalLoop=1;fontSize=11;endArrow=block;endFill=0;endSize=8;strokeWidth=1;shadow=0;labelBackgroundColor=none;edgeStyle=orthogonalEdgeStyle;entryX=0.5;entryY=0;entryDx=0;entryDy=0;" parent="WIyWlLk6GJQsqaUBKTNV-1" source="WIyWlLk6GJQsqaUBKTNV-6" target="57YCDFRrWDc7ahv4lhp7-1" edge="1">
          <mxGeometry y="20" relative="1" as="geometry">
            <mxPoint as="offset" />
            <mxPoint x="190" y="300" as="targetPoint" />
          </mxGeometry>
        </mxCell>
        <mxCell id="WIyWlLk6GJQsqaUBKTNV-5" value="No" style="edgeStyle=orthogonalEdgeStyle;rounded=0;html=1;jettySize=auto;orthogonalLoop=1;fontSize=11;endArrow=block;endFill=0;endSize=8;strokeWidth=1;shadow=0;labelBackgroundColor=none;" parent="WIyWlLk6GJQsqaUBKTNV-1" source="WIyWlLk6GJQsqaUBKTNV-6" target="WIyWlLk6GJQsqaUBKTNV-7" edge="1">
          <mxGeometry y="10" relative="1" as="geometry">
            <mxPoint as="offset" />
          </mxGeometry>
        </mxCell>
        <mxCell id="WIyWlLk6GJQsqaUBKTNV-6" value="Account is Available?" style="rhombus;whiteSpace=wrap;html=1;shadow=0;fontFamily=Helvetica;fontSize=12;align=center;strokeWidth=1;spacing=6;spacingTop=-4;" parent="WIyWlLk6GJQsqaUBKTNV-1" vertex="1">
          <mxGeometry x="170" y="170" width="100" height="90" as="geometry" />
        </mxCell>
        <mxCell id="57YCDFRrWDc7ahv4lhp7-16" style="edgeStyle=orthogonalEdgeStyle;rounded=0;orthogonalLoop=1;jettySize=auto;html=1;exitX=1;exitY=0.5;exitDx=0;exitDy=0;" edge="1" parent="WIyWlLk6GJQsqaUBKTNV-1" source="WIyWlLk6GJQsqaUBKTNV-7" target="57YCDFRrWDc7ahv4lhp7-15">
          <mxGeometry relative="1" as="geometry" />
        </mxCell>
        <mxCell id="WIyWlLk6GJQsqaUBKTNV-7" value="Sign up" style="rounded=1;whiteSpace=wrap;html=1;fontSize=12;glass=0;strokeWidth=1;shadow=0;" parent="WIyWlLk6GJQsqaUBKTNV-1" vertex="1">
          <mxGeometry x="360" y="195" width="120" height="40" as="geometry" />
        </mxCell>
        <mxCell id="57YCDFRrWDc7ahv4lhp7-3" value="" style="edgeStyle=orthogonalEdgeStyle;rounded=0;orthogonalLoop=1;jettySize=auto;html=1;" edge="1" parent="WIyWlLk6GJQsqaUBKTNV-1" source="57YCDFRrWDc7ahv4lhp7-1" target="57YCDFRrWDc7ahv4lhp7-2">
          <mxGeometry relative="1" as="geometry" />
        </mxCell>
        <mxCell id="57YCDFRrWDc7ahv4lhp7-5" value="" style="edgeStyle=orthogonalEdgeStyle;rounded=0;orthogonalLoop=1;jettySize=auto;html=1;" edge="1" parent="WIyWlLk6GJQsqaUBKTNV-1" source="57YCDFRrWDc7ahv4lhp7-1" target="57YCDFRrWDc7ahv4lhp7-4">
          <mxGeometry relative="1" as="geometry" />
        </mxCell>
        <mxCell id="57YCDFRrWDc7ahv4lhp7-25" value="" style="edgeStyle=orthogonalEdgeStyle;rounded=0;orthogonalLoop=1;jettySize=auto;html=1;" edge="1" parent="WIyWlLk6GJQsqaUBKTNV-1" source="57YCDFRrWDc7ahv4lhp7-1" target="57YCDFRrWDc7ahv4lhp7-24">
          <mxGeometry relative="1" as="geometry" />
        </mxCell>
        <mxCell id="57YCDFRrWDc7ahv4lhp7-1" value="Dashboard" style="rounded=1;whiteSpace=wrap;html=1;" vertex="1" parent="WIyWlLk6GJQsqaUBKTNV-1">
          <mxGeometry x="260" y="340" width="120" height="50" as="geometry" />
        </mxCell>
        <mxCell id="57YCDFRrWDc7ahv4lhp7-18" value="" style="edgeStyle=orthogonalEdgeStyle;rounded=0;orthogonalLoop=1;jettySize=auto;html=1;" edge="1" parent="WIyWlLk6GJQsqaUBKTNV-1" source="57YCDFRrWDc7ahv4lhp7-2" target="57YCDFRrWDc7ahv4lhp7-17">
          <mxGeometry relative="1" as="geometry" />
        </mxCell>
        <mxCell id="57YCDFRrWDc7ahv4lhp7-2" value="Explore Post" style="whiteSpace=wrap;html=1;rounded=1;" vertex="1" parent="WIyWlLk6GJQsqaUBKTNV-1">
          <mxGeometry x="500" y="343.75" width="120" height="42.5" as="geometry" />
        </mxCell>
        <mxCell id="57YCDFRrWDc7ahv4lhp7-7" value="" style="edgeStyle=orthogonalEdgeStyle;rounded=0;orthogonalLoop=1;jettySize=auto;html=1;" edge="1" parent="WIyWlLk6GJQsqaUBKTNV-1" source="57YCDFRrWDc7ahv4lhp7-4" target="57YCDFRrWDc7ahv4lhp7-6">
          <mxGeometry relative="1" as="geometry" />
        </mxCell>
        <mxCell id="57YCDFRrWDc7ahv4lhp7-4" value="Setting" style="rounded=1;whiteSpace=wrap;html=1;" vertex="1" parent="WIyWlLk6GJQsqaUBKTNV-1">
          <mxGeometry x="60" y="340" width="120" height="50" as="geometry" />
        </mxCell>
        <mxCell id="57YCDFRrWDc7ahv4lhp7-6" value="Edit Profile" style="whiteSpace=wrap;html=1;rounded=1;" vertex="1" parent="WIyWlLk6GJQsqaUBKTNV-1">
          <mxGeometry x="60" y="465" width="120" height="45" as="geometry" />
        </mxCell>
        <mxCell id="57YCDFRrWDc7ahv4lhp7-76" style="edgeStyle=orthogonalEdgeStyle;rounded=0;orthogonalLoop=1;jettySize=auto;html=1;entryX=0.5;entryY=1;entryDx=0;entryDy=0;" edge="1" parent="WIyWlLk6GJQsqaUBKTNV-1" source="57YCDFRrWDc7ahv4lhp7-10" target="57YCDFRrWDc7ahv4lhp7-6">
          <mxGeometry relative="1" as="geometry" />
        </mxCell>
        <mxCell id="57YCDFRrWDc7ahv4lhp7-10" value="&lt;br&gt;Photo&lt;br&gt;Name&lt;br&gt;Date Of Birth&lt;br&gt;Current Location&lt;br&gt;India Location&lt;br&gt;Email ID&lt;br&gt;Mobile Number&lt;br&gt;Aadhar Card Details&lt;br&gt;Previous Transactions&lt;br&gt;Log Out&lt;br&gt;User Rating" style="text;html=1;align=center;verticalAlign=middle;resizable=0;points=[];autosize=1;strokeColor=#82b366;fillColor=#d5e8d4;" vertex="1" parent="WIyWlLk6GJQsqaUBKTNV-1">
          <mxGeometry x="-90" y="551.25" width="140" height="190" as="geometry" />
        </mxCell>
        <mxCell id="57YCDFRrWDc7ahv4lhp7-15" value="OTP Varification&amp;nbsp;&lt;br&gt;Mobile and Email ID Both&lt;br&gt;&lt;br&gt;Address Varification&lt;br&gt;By Aadhar Card For India&lt;br&gt;Aadhar API Integration&lt;br&gt;&lt;br&gt;USA Current Location &lt;br&gt;And Address Check&lt;br&gt;&lt;br&gt;If USA, User Verify Office/College Email id" style="text;html=1;align=center;verticalAlign=middle;resizable=0;points=[];autosize=1;strokeColor=#82b366;fillColor=#d5e8d4;" vertex="1" parent="WIyWlLk6GJQsqaUBKTNV-1">
          <mxGeometry x="610" y="130" width="250" height="170" as="geometry" />
        </mxCell>
        <mxCell id="57YCDFRrWDc7ahv4lhp7-20" value="" style="edgeStyle=orthogonalEdgeStyle;rounded=0;orthogonalLoop=1;jettySize=auto;html=1;" edge="1" parent="WIyWlLk6GJQsqaUBKTNV-1" source="57YCDFRrWDc7ahv4lhp7-17" target="57YCDFRrWDc7ahv4lhp7-19">
          <mxGeometry relative="1" as="geometry" />
        </mxCell>
        <mxCell id="57YCDFRrWDc7ahv4lhp7-30" value="" style="edgeStyle=orthogonalEdgeStyle;rounded=0;orthogonalLoop=1;jettySize=auto;html=1;" edge="1" parent="WIyWlLk6GJQsqaUBKTNV-1" source="57YCDFRrWDc7ahv4lhp7-17" target="57YCDFRrWDc7ahv4lhp7-29">
          <mxGeometry relative="1" as="geometry" />
        </mxCell>
        <mxCell id="57YCDFRrWDc7ahv4lhp7-17" value="Filters" style="rhombus;whiteSpace=wrap;html=1;rounded=1;" vertex="1" parent="WIyWlLk6GJQsqaUBKTNV-1">
          <mxGeometry x="520" y="447.5" width="80" height="80" as="geometry" />
        </mxCell>
        <mxCell id="57YCDFRrWDc7ahv4lhp7-19" value="City&lt;br&gt;Amount Range&lt;br&gt;US City&lt;br&gt;&lt;br&gt;PinCode India&lt;br&gt;University USA&lt;br&gt;University India" style="whiteSpace=wrap;html=1;rounded=1;fillColor=#d5e8d4;strokeColor=#82b366;" vertex="1" parent="WIyWlLk6GJQsqaUBKTNV-1">
          <mxGeometry x="680" y="423.75" width="120" height="127.5" as="geometry" />
        </mxCell>
        <mxCell id="57YCDFRrWDc7ahv4lhp7-37" style="edgeStyle=orthogonalEdgeStyle;rounded=0;orthogonalLoop=1;jettySize=auto;html=1;exitX=1;exitY=0.5;exitDx=0;exitDy=0;entryX=0;entryY=0;entryDx=0;entryDy=0;" edge="1" parent="WIyWlLk6GJQsqaUBKTNV-1" source="57YCDFRrWDc7ahv4lhp7-24" target="57YCDFRrWDc7ahv4lhp7-35">
          <mxGeometry relative="1" as="geometry" />
        </mxCell>
        <mxCell id="57YCDFRrWDc7ahv4lhp7-24" value="Create Post" style="whiteSpace=wrap;html=1;rounded=1;" vertex="1" parent="WIyWlLk6GJQsqaUBKTNV-1">
          <mxGeometry x="260" y="480" width="120" height="60" as="geometry" />
        </mxCell>
        <mxCell id="57YCDFRrWDc7ahv4lhp7-28" style="edgeStyle=orthogonalEdgeStyle;rounded=0;orthogonalLoop=1;jettySize=auto;html=1;exitX=0.5;exitY=0;exitDx=0;exitDy=0;entryX=0.5;entryY=1;entryDx=0;entryDy=0;" edge="1" parent="WIyWlLk6GJQsqaUBKTNV-1" source="57YCDFRrWDc7ahv4lhp7-26" target="57YCDFRrWDc7ahv4lhp7-24">
          <mxGeometry relative="1" as="geometry" />
        </mxCell>
        <mxCell id="57YCDFRrWDc7ahv4lhp7-26" value="Access Location&lt;br&gt;Verify Via OTP" style="whiteSpace=wrap;html=1;rounded=1;fillColor=#d5e8d4;strokeColor=#82b366;" vertex="1" parent="WIyWlLk6GJQsqaUBKTNV-1">
          <mxGeometry x="140" y="585" width="120" height="60" as="geometry" />
        </mxCell>
        <mxCell id="57YCDFRrWDc7ahv4lhp7-36" value="" style="edgeStyle=orthogonalEdgeStyle;rounded=0;orthogonalLoop=1;jettySize=auto;html=1;" edge="1" parent="WIyWlLk6GJQsqaUBKTNV-1" source="57YCDFRrWDc7ahv4lhp7-29" target="57YCDFRrWDc7ahv4lhp7-35">
          <mxGeometry relative="1" as="geometry" />
        </mxCell>
        <mxCell id="57YCDFRrWDc7ahv4lhp7-29" value="Reply to Post" style="whiteSpace=wrap;html=1;rounded=1;" vertex="1" parent="WIyWlLk6GJQsqaUBKTNV-1">
          <mxGeometry x="500" y="584.5" width="120" height="60" as="geometry" />
        </mxCell>
        <mxCell id="57YCDFRrWDc7ahv4lhp7-31" style="edgeStyle=orthogonalEdgeStyle;rounded=0;orthogonalLoop=1;jettySize=auto;html=1;exitX=0.5;exitY=1;exitDx=0;exitDy=0;" edge="1" parent="WIyWlLk6GJQsqaUBKTNV-1" source="57YCDFRrWDc7ahv4lhp7-29" target="57YCDFRrWDc7ahv4lhp7-29">
          <mxGeometry relative="1" as="geometry" />
        </mxCell>
        <mxCell id="57YCDFRrWDc7ahv4lhp7-39" value="" style="edgeStyle=orthogonalEdgeStyle;rounded=0;orthogonalLoop=1;jettySize=auto;html=1;" edge="1" parent="WIyWlLk6GJQsqaUBKTNV-1" source="57YCDFRrWDc7ahv4lhp7-35" target="57YCDFRrWDc7ahv4lhp7-38">
          <mxGeometry relative="1" as="geometry" />
        </mxCell>
        <mxCell id="57YCDFRrWDc7ahv4lhp7-35" value="Once Both Parties Are Okay&lt;br&gt;Start The Process" style="rhombus;whiteSpace=wrap;html=1;rounded=1;" vertex="1" parent="WIyWlLk6GJQsqaUBKTNV-1">
          <mxGeometry x="400" y="840" width="180" height="160" as="geometry" />
        </mxCell>
        <mxCell id="57YCDFRrWDc7ahv4lhp7-43" value="" style="edgeStyle=orthogonalEdgeStyle;rounded=0;orthogonalLoop=1;jettySize=auto;html=1;" edge="1" parent="WIyWlLk6GJQsqaUBKTNV-1" source="57YCDFRrWDc7ahv4lhp7-38" target="57YCDFRrWDc7ahv4lhp7-42">
          <mxGeometry relative="1" as="geometry" />
        </mxCell>
        <mxCell id="57YCDFRrWDc7ahv4lhp7-38" value="Disable the Post from Public" style="whiteSpace=wrap;html=1;rounded=1;" vertex="1" parent="WIyWlLk6GJQsqaUBKTNV-1">
          <mxGeometry x="390" y="1060" width="200" height="70" as="geometry" />
        </mxCell>
        <mxCell id="57YCDFRrWDc7ahv4lhp7-42" value="Indian User &lt;br&gt;Has&lt;br&gt;&amp;nbsp;to Pay First" style="rhombus;whiteSpace=wrap;html=1;rounded=1;" vertex="1" parent="WIyWlLk6GJQsqaUBKTNV-1">
          <mxGeometry x="692.5" y="1030" width="130" height="130" as="geometry" />
        </mxCell>
        <mxCell id="57YCDFRrWDc7ahv4lhp7-53" style="edgeStyle=orthogonalEdgeStyle;rounded=0;orthogonalLoop=1;jettySize=auto;html=1;entryX=0.5;entryY=1;entryDx=0;entryDy=0;" edge="1" parent="WIyWlLk6GJQsqaUBKTNV-1" source="57YCDFRrWDc7ahv4lhp7-46" target="57YCDFRrWDc7ahv4lhp7-49">
          <mxGeometry relative="1" as="geometry" />
        </mxCell>
        <mxCell id="57YCDFRrWDc7ahv4lhp7-46" value="Paid" style="text;html=1;align=center;verticalAlign=middle;resizable=0;points=[];autosize=1;strokeColor=none;fillColor=none;" vertex="1" parent="WIyWlLk6GJQsqaUBKTNV-1">
          <mxGeometry x="732.5" y="940" width="50" height="30" as="geometry" />
        </mxCell>
        <mxCell id="57YCDFRrWDc7ahv4lhp7-56" value="" style="edgeStyle=orthogonalEdgeStyle;rounded=0;orthogonalLoop=1;jettySize=auto;html=1;" edge="1" parent="WIyWlLk6GJQsqaUBKTNV-1" source="57YCDFRrWDc7ahv4lhp7-49" target="57YCDFRrWDc7ahv4lhp7-55">
          <mxGeometry relative="1" as="geometry" />
        </mxCell>
        <mxCell id="57YCDFRrWDc7ahv4lhp7-49" value="Company Received Money (AMount Blockeed)" style="rounded=1;whiteSpace=wrap;html=1;" vertex="1" parent="WIyWlLk6GJQsqaUBKTNV-1">
          <mxGeometry x="675" y="820" width="165" height="70" as="geometry" />
        </mxCell>
        <mxCell id="57YCDFRrWDc7ahv4lhp7-54" value="" style="endArrow=none;html=1;rounded=0;entryX=0.517;entryY=1.122;entryDx=0;entryDy=0;entryPerimeter=0;exitX=0.5;exitY=0;exitDx=0;exitDy=0;" edge="1" parent="WIyWlLk6GJQsqaUBKTNV-1" source="57YCDFRrWDc7ahv4lhp7-42" target="57YCDFRrWDc7ahv4lhp7-46">
          <mxGeometry width="50" height="50" relative="1" as="geometry">
            <mxPoint x="570" y="960" as="sourcePoint" />
            <mxPoint x="620" y="910" as="targetPoint" />
          </mxGeometry>
        </mxCell>
        <mxCell id="57YCDFRrWDc7ahv4lhp7-61" value="" style="edgeStyle=orthogonalEdgeStyle;rounded=0;orthogonalLoop=1;jettySize=auto;html=1;" edge="1" parent="WIyWlLk6GJQsqaUBKTNV-1" source="57YCDFRrWDc7ahv4lhp7-55" target="57YCDFRrWDc7ahv4lhp7-60">
          <mxGeometry relative="1" as="geometry" />
        </mxCell>
        <mxCell id="57YCDFRrWDc7ahv4lhp7-63" value="Done Paid" style="edgeLabel;html=1;align=center;verticalAlign=middle;resizable=0;points=[];" vertex="1" connectable="0" parent="57YCDFRrWDc7ahv4lhp7-61">
          <mxGeometry x="-0.0293" y="-4" relative="1" as="geometry">
            <mxPoint as="offset" />
          </mxGeometry>
        </mxCell>
        <mxCell id="57YCDFRrWDc7ahv4lhp7-68" value="" style="edgeStyle=orthogonalEdgeStyle;rounded=0;orthogonalLoop=1;jettySize=auto;html=1;" edge="1" parent="WIyWlLk6GJQsqaUBKTNV-1" source="57YCDFRrWDc7ahv4lhp7-55" target="57YCDFRrWDc7ahv4lhp7-67">
          <mxGeometry relative="1" as="geometry" />
        </mxCell>
        <mxCell id="57YCDFRrWDc7ahv4lhp7-69" value="Payment Not Done" style="edgeLabel;html=1;align=center;verticalAlign=middle;resizable=0;points=[];" vertex="1" connectable="0" parent="57YCDFRrWDc7ahv4lhp7-68">
          <mxGeometry x="-0.1434" y="-1" relative="1" as="geometry">
            <mxPoint as="offset" />
          </mxGeometry>
        </mxCell>
        <mxCell id="57YCDFRrWDc7ahv4lhp7-55" value="USA User Payment" style="rhombus;whiteSpace=wrap;html=1;rounded=1;" vertex="1" parent="WIyWlLk6GJQsqaUBKTNV-1">
          <mxGeometry x="1030" y="780" width="140" height="150" as="geometry" />
        </mxCell>
        <mxCell id="57YCDFRrWDc7ahv4lhp7-72" style="edgeStyle=orthogonalEdgeStyle;rounded=0;orthogonalLoop=1;jettySize=auto;html=1;exitX=0;exitY=0.5;exitDx=0;exitDy=0;entryX=0.5;entryY=0;entryDx=0;entryDy=0;" edge="1" parent="WIyWlLk6GJQsqaUBKTNV-1" source="57YCDFRrWDc7ahv4lhp7-60" target="57YCDFRrWDc7ahv4lhp7-70">
          <mxGeometry relative="1" as="geometry" />
        </mxCell>
        <mxCell id="57YCDFRrWDc7ahv4lhp7-60" value="Release Amount By Company To USA User" style="rounded=1;whiteSpace=wrap;html=1;" vertex="1" parent="WIyWlLk6GJQsqaUBKTNV-1">
          <mxGeometry x="1220" y="962.5" width="160" height="75" as="geometry" />
        </mxCell>
        <mxCell id="57YCDFRrWDc7ahv4lhp7-71" value="" style="edgeStyle=orthogonalEdgeStyle;rounded=0;orthogonalLoop=1;jettySize=auto;html=1;" edge="1" parent="WIyWlLk6GJQsqaUBKTNV-1" source="57YCDFRrWDc7ahv4lhp7-67" target="57YCDFRrWDc7ahv4lhp7-70">
          <mxGeometry relative="1" as="geometry" />
        </mxCell>
        <mxCell id="57YCDFRrWDc7ahv4lhp7-67" value="Release Amount Back To Indian User" style="whiteSpace=wrap;html=1;rounded=1;" vertex="1" parent="WIyWlLk6GJQsqaUBKTNV-1">
          <mxGeometry x="910" y="980" width="150" height="70" as="geometry" />
        </mxCell>
        <mxCell id="57YCDFRrWDc7ahv4lhp7-70" value="Update The User Transaction Record" style="ellipse;whiteSpace=wrap;html=1;rounded=1;" vertex="1" parent="WIyWlLk6GJQsqaUBKTNV-1">
          <mxGeometry x="1110" y="1240" width="140" height="140" as="geometry" />
        </mxCell>
        <mxCell id="57YCDFRrWDc7ahv4lhp7-73" value="Access Location&lt;br&gt;Verify Via OTP" style="whiteSpace=wrap;html=1;rounded=1;fillColor=#d5e8d4;strokeColor=#82b366;" vertex="1" parent="WIyWlLk6GJQsqaUBKTNV-1">
          <mxGeometry x="380" y="405" width="120" height="60" as="geometry" />
        </mxCell>
        <mxCell id="57YCDFRrWDc7ahv4lhp7-78" style="edgeStyle=orthogonalEdgeStyle;rounded=0;orthogonalLoop=1;jettySize=auto;html=1;exitX=0.5;exitY=0;exitDx=0;exitDy=0;entryX=0.5;entryY=1;entryDx=0;entryDy=0;" edge="1" parent="WIyWlLk6GJQsqaUBKTNV-1" source="57YCDFRrWDc7ahv4lhp7-77" target="57YCDFRrWDc7ahv4lhp7-24">
          <mxGeometry relative="1" as="geometry" />
        </mxCell>
        <mxCell id="57YCDFRrWDc7ahv4lhp7-77" value="USD TO INR POST&lt;br&gt;INR TO USD POST" style="whiteSpace=wrap;html=1;rounded=1;fillColor=#d5e8d4;strokeColor=#82b366;" vertex="1" parent="WIyWlLk6GJQsqaUBKTNV-1">
          <mxGeometry x="240" y="681.25" width="120" height="60" as="geometry" />
        </mxCell>
      </root>
    </mxGraphModel>
  </diagram>
</mxfile>
